<?xml version="1.0" encoding="UTF-8" standalone="no"?>
<!DOCTYPE svg PUBLIC "-//W3C//DTD SVG 1.1//EN" "http://www.w3.org/Graphics/SVG/1.1/DTD/svg11.dtd">
<svg version="1.1" xmlns="http://www.w3.org/2000/svg" xmlns:xlink="http://www.w3.org/1999/xlink" preserveAspectRatio="xMidYMid meet" viewBox="0 0 640 640" width="640" height="640"><defs><path d="M320 0C143.27 0 0 143.27 0 320C0 496.73 143.27 640 320 640C496.73 640 640 496.73 640 320C640 143.27 496.73 0 320 0Z" id="b1yqoH3MLU"></path><clipPath id="clipc29Qmdp1l7"><use xlink:href="#b1yqoH3MLU" opacity="1"></use></clipPath><path d="M398.88 497.66C383.11 497.66 256.91 497.66 241.14 497.66C231.94 497.66 224.48 490.32 224.48 481C224.48 471.8 231.94 464.34 241.14 464.34C256.91 464.34 383.11 464.34 398.88 464.34C408.06 464.34 415.54 471.8 415.54 481C415.54 490.34 408.08 497.66 398.88 497.66Z" id="a1fNspZvFr"></path><path d="M207.06 344.77C244.68 345.93 266.54 323.21 274.36 327C284.1 329.75 270.82 382.18 207.06 382.38C143.32 382.18 130.02 329.75 139.76 327C147.58 323.21 170.72 343.65 207.06 344.77Z" id="aQHM0Ucg"></path><path d="M148.61 280.9C149.7 275.4 155.92 271.62 162.76 272.53C232.15 281.66 253.24 241.08 253.45 240.67C256 235.5 263.19 233.02 269.54 235.13C275.85 237.23 278.89 243.13 276.31 248.3C262.39 276.22 218.66 300.35 158.83 292.48C152.11 291.6 147.52 286.42 148.61 280.9Z" id="c1EbiQtt3Q"></path><path d="M432.94 344.77C395.32 345.93 373.46 323.21 365.64 327C355.9 329.75 369.18 382.18 432.94 382.38C496.68 382.18 509.98 329.75 500.24 327C492.42 323.21 469.28 343.65 432.94 344.77Z" id="d41O68Zn9l"></path><path d="M491.39 265.5C490.3 260 484.08 256.23 477.24 257.14C407.85 266.26 386.76 225.69 386.55 225.28C384 220.11 376.81 217.62 370.46 219.73C364.15 221.84 361.11 227.73 363.69 232.9C377.61 260.82 421.34 284.95 481.17 277.08C487.89 276.2 492.48 271.02 491.39 265.5Z" id="a16tTDrrMw"></path></defs><g><g><g><use xlink:href="#b1yqoH3MLU" opacity="1" fill="#ffffff" fill-opacity="1"></use><g clip-path="url(#clipc29Qmdp1l7)"><use xlink:href="#b1yqoH3MLU" opacity="1" fill-opacity="0" stroke="#3e4347" stroke-width="60" stroke-opacity="1"></use></g></g><g><use xlink:href="#a1fNspZvFr" opacity="1" fill="#3e4347" fill-opacity="1"></use><g><use xlink:href="#a1fNspZvFr" opacity="1" fill-opacity="0" stroke="#000000" stroke-width="1" stroke-opacity="0"></use></g></g><g><use xlink:href="#aQHM0Ucg" opacity="1" fill="#3e4347" fill-opacity="1"></use><g><use xlink:href="#aQHM0Ucg" opacity="1" fill-opacity="0" stroke="#000000" stroke-width="1" stroke-opacity="0"></use></g></g><g><use xlink:href="#c1EbiQtt3Q" opacity="1" fill="#3e4347" fill-opacity="1"></use><g><use xlink:href="#c1EbiQtt3Q" opacity="1" fill-opacity="0" stroke="#3e4347" stroke-width="1" stroke-opacity="1"></use></g></g><g><use xlink:href="#d41O68Zn9l" opacity="1" fill="#3e4347" fill-opacity="1"></use><g><use xlink:href="#d41O68Zn9l" opacity="1" fill-opacity="0" stroke="#000000" stroke-width="1" stroke-opacity="0"></use></g></g><g><use xlink:href="#a16tTDrrMw" opacity="1" fill="#3e4347" fill-opacity="1"></use><g><use xlink:href="#a16tTDrrMw" opacity="1" fill-opacity="0" stroke="#3e4347" stroke-width="1" stroke-opacity="1"></use></g></g></g></g></svg>