<?xml version="1.0" encoding="UTF-8" standalone="no"?>
<!DOCTYPE svg PUBLIC "-//W3C//DTD SVG 1.1//EN" "http://www.w3.org/Graphics/SVG/1.1/DTD/svg11.dtd">
<svg version="1.1" xmlns="http://www.w3.org/2000/svg" xmlns:xlink="http://www.w3.org/1999/xlink" preserveAspectRatio="xMidYMid meet" viewBox="0 0 640 640" width="640" height="640"><defs><path d="M320 0C143.27 0 0 143.27 0 320C0 496.73 143.27 640 320 640C496.73 640 640 496.73 640 320C640 143.27 496.73 0 320 0Z" id="a1eUQU93SZ"></path><path d="M320 640C219.4 640 129.6 593.6 70.9 520.9C125.8 565.3 195.7 591.8 271.8 591.8C448.5 591.8 591.8 448.6 591.8 271.8C591.8 195.7 565.3 125.8 520.9 70.9C593.5 129.6 640 219.4 640 320C640 496.8 496.7 640 320 640Z" id="a50DH4Xme"></path><path d="M398.88 497.66C383.11 497.66 256.91 497.66 241.14 497.66C231.94 497.66 224.48 490.32 224.48 481C224.48 471.8 231.94 464.34 241.14 464.34C256.91 464.34 383.11 464.34 398.88 464.34C408.06 464.34 415.54 471.8 415.54 481C415.54 490.34 408.08 497.66 398.88 497.66Z" id="a1fNspZvFr"></path><path d="M207.06 348.66C244.68 350.06 266.54 322.5 274.36 327.1C284.1 330.44 270.82 394.04 207.06 394.28C143.32 394.04 130.02 330.44 139.76 327.1C147.58 322.5 170.72 347.3 207.06 348.66Z" id="b1StcN2VN8"></path><path d="M113.72 283.86C114.9 276.6 121.62 271.62 129 272.82C203.96 284.86 226.74 231.32 226.96 230.78C229.72 223.96 237.48 220.68 244.34 223.46C251.16 226.24 254.44 234.02 251.66 240.84C236.62 277.68 189.38 309.52 124.76 299.14C117.5 297.98 112.54 291.14 113.72 283.86Z" id="k6vgeB2sg"></path><path d="M432.94 348.66C395.32 350.06 373.46 322.5 365.64 327.1C355.9 330.44 369.18 394.04 432.94 394.28C496.68 394.04 509.98 330.44 500.24 327.1C492.42 322.5 469.28 347.3 432.94 348.66Z" id="a1bbItUDP"></path><path d="M395.66 223.44C402.46 220.66 410.22 223.92 413.02 230.7C414.02 233.1 436.92 284.72 511 272.82C518.34 271.62 525.12 276.6 526.28 283.86C527.44 291.14 522.5 297.98 515.24 299.14C451.08 309.46 403.5 278 388.34 240.82C385.56 234 388.84 226.22 395.66 223.44Z" id="ej1TMJB9X"></path></defs><g><g><g><use xlink:href="#a1eUQU93SZ" opacity="1" fill="#ffd93b" fill-opacity="1"></use><g><use xlink:href="#a1eUQU93SZ" opacity="1" fill-opacity="0" stroke="#000000" stroke-width="1" stroke-opacity="0"></use></g></g><g><use xlink:href="#a50DH4Xme" opacity="1" fill="#f4c534" fill-opacity="1"></use><g><use xlink:href="#a50DH4Xme" opacity="1" fill-opacity="0" stroke="#000000" stroke-width="1" stroke-opacity="0"></use></g></g><g><use xlink:href="#a1fNspZvFr" opacity="1" fill="#3e4347" fill-opacity="1"></use><g><use xlink:href="#a1fNspZvFr" opacity="1" fill-opacity="0" stroke="#000000" stroke-width="1" stroke-opacity="0"></use></g></g><g><use xlink:href="#b1StcN2VN8" opacity="1" fill="#3e4347" fill-opacity="1"></use><g><use xlink:href="#b1StcN2VN8" opacity="1" fill-opacity="0" stroke="#000000" stroke-width="1" stroke-opacity="0"></use></g></g><g><use xlink:href="#k6vgeB2sg" opacity="1" fill="#e9b02c" fill-opacity="1"></use><g><use xlink:href="#k6vgeB2sg" opacity="1" fill-opacity="0" stroke="#000000" stroke-width="1" stroke-opacity="0"></use></g></g><g><use xlink:href="#a1bbItUDP" opacity="1" fill="#3e4347" fill-opacity="1"></use><g><use xlink:href="#a1bbItUDP" opacity="1" fill-opacity="0" stroke="#000000" stroke-width="1" stroke-opacity="0"></use></g></g><g><use xlink:href="#ej1TMJB9X" opacity="1" fill="#e9b02c" fill-opacity="1"></use><g><use xlink:href="#ej1TMJB9X" opacity="1" fill-opacity="0" stroke="#000000" stroke-width="1" stroke-opacity="0"></use></g></g></g></g></svg>