<svg id="Capa_1" enable-background="new 0 0 512 512" height="512" viewBox="0 0 512 512" width="512" xmlns="http://www.w3.org/2000/svg"><g><g><path d="m163.007 205.03 20.105-60.314c4.839-14.517 1.061-30.522-9.76-41.343l-89.471-89.472c-7.889-7.889-20.679-7.889-28.567 0l-28.567 28.567c-51.276 51.276 6.279 191.966 128.553 314.24 122.273 122.273 262.964 179.829 314.24 128.553l28.567-28.567c7.889-7.889 7.889-20.679 0-28.567l-89.472-89.471c-10.82-10.821-26.826-14.599-41.343-9.76l-60.314 20.105c-9.618 3.206-20.134 1.319-28.202-4.821-20.007-15.226-39.917-32.464-59.2-51.747s-36.522-39.193-51.747-59.2c-6.141-8.069-8.028-18.585-4.822-28.203z" fill="#dcf8e1"/></g><g><path d="m479.002 433.019c6.139 0 12.282-2.344 16.969-7.028l-87.337-87.337c-10.82-10.821-26.826-14.599-41.343-9.76l-60.315 20.105c-9.618 3.206-20.134 1.319-28.202-4.821-20.007-15.226-39.916-32.464-59.2-51.747-19.283-19.283-36.522-39.193-51.747-59.2-6.14-8.068-8.027-18.584-4.82-28.201l20.105-60.315c4.839-14.517 1.061-30.523-9.76-41.343l-87.336-87.337c-9.371 9.375-9.37 24.569-.001 33.939l70.366 70.366c4.422 4.426 5.942 10.856 3.961 16.786l-20.102 60.311c-5.688 17.051-2.516 35.865 8.489 50.33 16.399 21.551 34.529 42.291 53.877 61.635 19.344 19.348 40.083 37.478 61.639 53.881 14.457 11.004 33.259 14.172 50.322 8.489l60.315-20.106c5.942-1.973 12.364-.457 16.786 3.965l70.366 70.362c4.683 4.682 10.827 7.026 16.968 7.026z" fill="#fff"/></g><g><path d="m172.011 178.942c-2.044 0-4.087-.779-5.646-2.339l-135.507-135.511c-3.118-3.118-3.118-8.173 0-11.291 3.119-3.118 8.175-3.117 11.291 0l135.507 135.511c3.118 3.118 3.118 8.173 0 11.291-1.559 1.559-3.602 2.339-5.645 2.339z" fill="#8cebaf"/></g><g><path d="m476.373 483.304c-2.044 0-4.087-.779-5.646-2.339l-135.32-135.324c-3.118-3.118-3.118-8.173 0-11.291 3.12-3.118 8.174-3.118 11.292 0l135.32 135.324c3.118 3.118 3.118 8.173 0 11.291-1.559 1.56-3.603 2.339-5.646 2.339z" fill="#8cebaf"/></g><g><path d="m416.512 512c-23.082.001-50.251-6.174-80.492-18.545-60.311-24.673-126.497-71.232-186.367-131.102-59.869-59.869-106.428-126.056-131.101-186.366-25.577-62.521-24.671-111.944 2.549-139.165l28.567-28.567c5.324-5.323 12.401-8.255 19.929-8.255s14.606 2.932 19.929 8.255l89.472 89.471c13.042 13.043 17.521 32.016 11.688 49.514l-20.105 60.314c-2.339 7.016-.993 14.807 3.6 20.842 15.531 20.408 32.703 40.054 51.04 58.39 18.334 18.334 37.979 35.506 58.389 51.039 6.034 4.593 13.827 5.938 20.842 3.6l60.314-20.105c17.501-5.833 36.471-1.354 49.514 11.688l89.472 89.472c10.988 10.989 10.988 28.87 0 39.859l-28.567 28.567c-14.054 14.053-34.035 21.093-58.673 21.094zm-346.915-496.026c-3.128 0-6.257 1.191-8.638 3.572l-28.567 28.567c-10.972 10.973-16.49 27.075-16.402 47.858.091 21.177 5.925 46.064 17.341 73.97 23.888 58.393 69.209 122.717 127.613 181.121s122.728 103.725 181.121 127.613c27.906 11.416 52.793 17.251 73.97 17.341.165.001.33.001.494.001 20.545 0 36.478-5.517 47.363-16.403l28.568-28.567c4.763-4.763 4.763-12.513 0-17.277l-89.472-89.471c-8.737-8.738-21.447-11.738-33.172-7.831l-60.314 20.105c-12.029 4.011-25.323 1.751-35.562-6.041-20.98-15.966-41.17-33.615-60.01-52.455-18.842-18.842-36.491-39.033-52.456-60.011-7.792-10.239-10.051-23.533-6.041-35.561l20.105-60.314c3.908-11.724.907-24.435-7.831-33.173l-89.471-89.472c-2.382-2.381-5.51-3.572-8.639-3.572zm93.411 189.056h.01z" fill="#00bebe"/></g><g><path d="m416.513 512c-23.082 0-50.252-6.174-80.493-18.545-60.311-24.673-126.497-71.232-186.367-131.102-29.974-29.974-56.636-61.526-79.246-93.783-2.531-3.611-1.656-8.59 1.955-11.121 3.609-2.531 8.59-1.656 11.12 1.955 22.079 31.499 48.141 62.337 77.461 91.657 58.404 58.404 122.728 103.725 181.121 127.613 27.906 11.416 52.793 17.251 73.97 17.341.165.001.33.001.495.001 20.544 0 36.477-5.517 47.362-16.403 3.12-3.118 8.174-3.118 11.292 0s3.118 8.173 0 11.291c-14.052 14.055-34.033 21.096-58.67 21.096z" fill="#283246"/></g></g></svg>